<svg height="134" viewBox="0 0 518 134" width="518" xmlns="http://www.w3.org/2000/svg"><g fill="none" fill-rule="evenodd"><g fill="#FFFFFF"><path d="m289.12297 8h-24.246941l-52.876029 118h24.078782l40.921718-93.2196493 40.750557 93.2196493h24.248943z"/><path d="m451.389132 105.435044v-97.435044h-22.223818v21.5769711h-65.165314v27.1400501h65.165314v20.7342929h-65.165314v26.6350439h65.165314v21.913642h82.834686v-20.564956z"/><path d="m133.368293 65.1458073 52.262744-56.47146433v-.67434297h-27.560225l-53.070812 57.1167495 57.608581 60.8832505h27.391419v-1.348686z"/><path d="m55.6583924 108.904275c-14.3036006 0-27.9320785-5.790225-33.1490271-18.904275l-18.5093653 9.7077374c8.7485907 21.7983756 27.2589562 29.2922626 51.3213312 29.2922626 9.2286779 0 18.0762865-1.417188 25.6786688-4.400369v-26.2898483c-3.9997272 7.5404523-14.3966176 10.5944923-25.3416076 10.5944923"/></g><path d="m57.2695239 53.975307c-14.1780942-1.6880227-26.3297432-4.5582635-26.3297432-14.858012 0-8.7793237 7.9332321-15.7010196 24.4738404-15.7010196 10.8123894 0 20.4079085 4.5622777 25.5863789 10.039821v-24.75432093c-8.069666-3.43023875-17.243845-4.70177547-26.2615262-4.70177547-21.7732511.16759797-45.7384738 10.1301434-45.7384738 34.4418852 0 26.50858 22.2788591 32.9244713 46.4136211 35.794712 12.1145309 1.3026478 21.7903053 4.3314542 25.5863789 10.7634028v-26.0198362c-7.1567625-2.5420699-15.344805-3.9701652-23.7304761-5.0048568" fill="#27b3b6"/></g></svg>
